<svg width="416" height="367" viewBox="0 0 416 367" fill="none" xmlns="http://www.w3.org/2000/svg">
<path fill-rule="evenodd" clip-rule="evenodd" d="M415.598 151.181L415.594 209.617V244.255V267.987C415.377 279.842 407.545 288.075 399.822 292.538L383.203 302.144C375.271 306.726 365.998 308.507 357.689 308.507C349.38 308.507 340.106 306.726 332.179 302.144L315.877 292.538C315.877 292.538 315.877 304.591 315.877 325.149C315.877 337.228 307.928 345.647 300.101 350.171L283.482 359.777C275.55 364.359 266.277 366.14 257.968 366.14C249.659 366.14 240.385 364.359 232.458 359.777L208.108 345.704L183.761 359.777C175.83 364.359 166.556 366.14 158.247 366.14C149.938 366.14 140.669 364.359 132.737 359.777L16.3976 292.538C8.67431 288.075 0.842503 279.842 0.625435 267.987L0.621094 267.254V214.499C0.621094 205.06 7.97969 197.262 17.3918 196.725L79.0173 193.207C81.0143 193.093 82.9983 193.318 84.8955 193.859C86.7666 194.392 88.5509 195.231 90.1702 196.357L160.331 245.124C155.56 241.002 151.579 235.287 150.48 227.88C150.32 226.793 150.229 225.699 150.211 224.605C150.202 224.08 150.207 223.556 150.229 223.031L150.259 222.492L150.289 222V201.843C150.289 192.78 157.088 185.164 166.088 184.152L222.742 177.78C227.774 177.214 232.805 178.821 236.582 182.199C240.138 185.382 242.261 189.855 242.491 194.602L270.94 211.043L284.32 202.254L215.839 162.677C208.672 158.536 201.465 151.244 200.232 140.617C200.154 139.937 200.102 139.256 200.08 138.574C200.05 137.718 200.059 136.862 200.115 136.008V114.475C200.115 104.644 208.077 96.6735 217.897 96.6735H250.648L251.239 95.4511L251.491 94.9252L251.517 94.8611L251.608 94.671L251.65 94.5838C252.791 92.2279 254.474 88.7541 256.31 85.9943C257.252 84.5829 259.366 81.5509 262.809 79.1757C264.701 77.8708 267.693 76.2752 271.639 75.8009C275.898 75.2891 280.018 76.2371 283.482 78.2375L377.325 132.473L398.585 133.396C408.096 133.809 415.598 141.649 415.598 151.181Z" fill="#F4FAF4"/>
<path fill-rule="evenodd" clip-rule="evenodd" d="M203.549 242.73L197.797 243.052L166.648 221.402L203.549 242.73ZM168.008 196.601C167.991 196.363 167.985 196.121 167.985 195.884V196.009C167.985 196.206 167.993 196.404 168.008 196.601Z" fill="#B2F2E1"/>
<path fill-rule="evenodd" clip-rule="evenodd" d="M415.598 123.071L415.594 166.911V201.549V225.281C415.377 237.136 407.545 245.369 399.822 249.832L383.203 259.438C375.271 264.02 365.998 265.801 357.689 265.801C349.38 265.801 340.106 264.02 332.179 259.438L315.877 249.832C315.877 249.832 315.877 261.885 315.877 282.443C315.877 294.522 307.928 302.941 300.101 307.466L283.482 317.071C275.55 321.653 266.277 323.435 257.968 323.435C249.659 323.435 240.385 321.653 232.458 317.071L208.107 302.998L183.761 317.071C175.83 321.653 166.556 323.435 158.247 323.435C149.938 323.435 140.669 321.653 132.737 317.071L16.3976 249.832C8.67431 245.369 0.842503 237.136 0.625435 225.281L0.621094 224.548V186.388C0.621094 176.95 7.97969 169.152 17.3918 168.615L79.0173 165.096C81.0143 164.982 82.9983 165.207 84.8955 165.748C86.7666 166.281 88.5509 167.121 90.1702 168.246L160.331 217.013C155.56 212.892 151.579 207.177 150.48 199.77C150.32 198.683 150.229 197.589 150.211 196.495C150.202 195.97 150.207 195.445 150.229 194.921L150.259 194.382L150.289 193.89V173.733C150.289 164.67 157.088 157.054 166.088 156.042L222.742 149.67C227.774 149.104 232.805 150.711 236.582 154.089C240.138 157.272 242.261 161.744 242.491 166.491L270.94 182.933L284.32 174.144L215.839 134.567C208.672 130.425 201.465 123.133 200.232 112.506C200.154 111.827 200.102 111.145 200.08 110.464C200.05 109.608 200.059 108.752 200.115 107.897V70.7884C200.115 60.9567 208.077 52.9864 217.897 52.9864L250.648 68.5631L251.239 67.3408L251.491 66.8149L251.517 66.7508L251.608 66.5606L251.65 66.4734C252.791 64.1175 254.474 60.6438 256.31 57.884C257.252 56.4726 259.366 53.4406 262.809 51.0654C264.701 49.7604 267.693 48.1648 271.639 47.6905C275.898 47.1788 280.018 48.1268 283.482 50.1271L377.325 104.363L398.584 105.286C408.096 105.699 415.598 113.539 415.598 123.071ZM203.549 242.73L197.797 243.052L166.648 221.402L203.549 242.73ZM168.008 196.601C167.991 196.363 167.985 196.121 167.985 195.884V196.009C167.985 196.206 167.993 196.404 168.008 196.601Z" fill="#B2F2E1"/>
<path fill-rule="evenodd" clip-rule="evenodd" d="M33.0269 122.025L16.4067 131.63C9.00208 135.91 1.49143 143.673 0.699448 154.722C0.647594 155.241 0.621094 155.783 0.621094 156.349V181.841L0.625435 182.574C0.842503 194.429 8.67431 202.662 16.3976 207.125L132.737 274.364C140.669 278.946 149.938 280.728 158.247 280.728C166.556 280.728 175.83 278.946 183.761 274.364L208.107 260.291L232.458 274.364C240.385 278.946 249.659 280.728 257.968 280.728C266.277 280.728 275.55 278.946 283.482 274.364L300.101 264.759C307.928 260.234 315.877 251.815 315.877 239.736V218.462C315.877 217.847 315.846 217.238 315.784 216.636C315.851 215.869 315.886 215.085 315.886 214.286C315.886 211.552 315.479 209.005 314.758 206.648C315.025 206.812 315.293 206.971 315.56 207.125L332.179 216.731C340.106 221.313 349.38 223.094 357.689 223.094C365.998 223.094 375.271 221.313 383.203 216.731L399.822 207.125C407.545 202.662 415.377 194.429 415.594 182.574V158.842V157.498C415.603 157.218 415.607 156.937 415.607 156.653C415.607 156.37 415.603 156.088 415.594 155.809V124.204L415.598 99.717C415.604 99.4861 415.607 99.2538 415.607 99.0201C415.607 86.9411 407.66 78.5219 399.831 73.9973L283.49 6.75891C275.561 2.17657 266.289 0.395508 257.979 0.395508C249.67 0.395508 240.397 2.17657 232.469 6.75891L215.848 16.3644C208.02 20.889 200.072 29.3081 200.072 41.3872C200.072 41.9567 200.09 42.5181 200.125 43.0713C200.118 43.2653 200.115 43.4609 200.115 43.6581V65.1902C200.059 66.0448 200.05 66.901 200.08 67.7567C200.102 68.4385 200.154 69.1197 200.232 69.7994C201.067 76.993 204.639 82.6585 209.083 86.8529C208.76 86.8476 208.439 86.8449 208.119 86.8449C199.81 86.8449 190.537 88.626 182.608 93.2083L165.988 102.814C158.159 107.338 150.212 115.758 150.212 127.837C150.212 128.622 150.246 129.392 150.311 130.147C150.297 130.438 150.289 130.731 150.289 131.026V151.183L150.259 151.675L150.229 152.214C150.207 152.738 150.203 153.263 150.211 153.788C150.229 154.882 150.32 155.976 150.48 157.063C150.679 158.404 150.973 159.689 151.348 160.92L84.0482 122.025C76.1195 117.442 66.8468 115.661 58.5375 115.661C50.2282 115.661 40.9556 117.442 33.0269 122.025Z" fill="#7BE7CE"/>
<path d="M274.593 22.1721C265.414 16.8671 250.531 16.8671 241.352 22.1721L224.732 31.7776C215.553 37.0825 215.553 45.6836 224.732 50.9886L339.057 117.062C343.465 119.609 345.941 123.064 345.941 126.667V128.998C345.941 132.601 343.465 136.056 339.057 138.603L324.453 147.043C315.274 152.348 315.274 160.95 324.453 166.254L341.073 175.86C350.252 181.165 365.135 181.165 374.314 175.86L390.934 166.254C400.113 160.95 400.113 152.348 390.934 147.043L376.33 138.603C371.922 136.056 369.446 132.601 369.446 128.998V126.667C369.446 123.064 371.922 119.609 376.33 117.062L390.934 108.622C400.113 103.317 400.113 94.7155 390.934 89.4105L274.593 22.1721Z" fill="#494E62"/>
<path d="M75.151 137.438C65.9719 132.133 51.0897 132.133 41.9107 137.438L25.2905 147.043C16.1115 152.348 16.1115 160.949 25.2905 166.254L141.632 233.493C150.811 238.798 165.693 238.798 174.872 233.493L208.112 214.282L75.151 137.438Z" fill="#494E62"/>
<path d="M269.725 186.631C269.725 190.234 272.201 193.689 276.609 196.236L291.213 204.676C300.392 209.981 300.392 218.582 291.213 223.887L274.593 233.493C265.414 238.798 250.532 238.798 241.352 233.493L208.112 214.282L239.336 196.236C243.744 193.689 246.22 190.234 246.22 186.631L246.22 184.3C246.22 180.697 243.744 177.242 239.336 174.695L174.872 137.438C165.693 132.133 165.693 123.532 174.872 118.227L191.492 108.622C200.671 103.317 215.553 103.317 224.732 108.622L291.213 147.043C300.392 152.348 300.392 160.95 291.213 166.254L276.609 174.695C272.201 177.242 269.725 180.697 269.725 184.3L269.725 186.631Z" fill="#494E62"/>
</svg>
